<svg xmlns="http://www.w3.org/2000/svg" viewBox="0 0 1536 768" width="1536" height="768">
  <defs>
    <linearGradient id="sky" x1="0" y1="0" x2="0" y2="1">
      <stop offset="0" stop-color="#140b24"/>
      <stop offset="0.45" stop-color="#4a1d3a"/>
      <stop offset="0.75" stop-color="#b8502f"/>
      <stop offset="1" stop-color="#f09a4a"/>
    </linearGradient>
    <radialGradient id="sun" cx="0.62" cy="0.8" r="0.5">
      <stop offset="0" stop-color="#ffd08a" stop-opacity="0.85"/>
      <stop offset="0.35" stop-color="#ff8a3d" stop-opacity="0.4"/>
      <stop offset="1" stop-color="#ff8a3d" stop-opacity="0"/>
    </radialGradient>
    <linearGradient id="ground" x1="0" y1="0" x2="0" y2="1">
      <stop offset="0" stop-color="#2a1620"/>
      <stop offset="1" stop-color="#0c070c"/>
    </linearGradient>
    <linearGradient id="steel" x1="0" y1="0" x2="1" y2="0">
      <stop offset="0" stop-color="#394146"/>
      <stop offset="0.4" stop-color="#8e999e"/>
      <stop offset="0.75" stop-color="#666f74"/>
      <stop offset="1" stop-color="#d98a5c"/>
    </linearGradient>
    <linearGradient id="steelDark" x1="0" y1="0" x2="1" y2="0">
      <stop offset="0" stop-color="#1f2528"/>
      <stop offset="0.5" stop-color="#4a5357"/>
      <stop offset="1" stop-color="#8a5a44"/>
    </linearGradient>
    <linearGradient id="visor" x1="0" y1="0" x2="1" y2="0">
      <stop offset="0" stop-color="#ff5a1f"/>
      <stop offset="0.6" stop-color="#fff2c8"/>
      <stop offset="1" stop-color="#ffffff"/>
    </linearGradient>
    <linearGradient id="nukeBody" x1="0" y1="0" x2="0" y2="1">
      <stop offset="0" stop-color="#c9d0c6"/>
      <stop offset="0.5" stop-color="#8f988e"/>
      <stop offset="1" stop-color="#4f574f"/>
    </linearGradient>
    <radialGradient id="blast" cx="0.5" cy="0.5" r="0.5">
      <stop offset="0" stop-color="#fff8e0" stop-opacity="1"/>
      <stop offset="0.25" stop-color="#ffc05a" stop-opacity="0.85"/>
      <stop offset="0.55" stop-color="#ff5a1f" stop-opacity="0.45"/>
      <stop offset="1" stop-color="#ff5a1f" stop-opacity="0"/>
    </radialGradient>
    <radialGradient id="vignette" cx="0.5" cy="0.5" r="0.75">
      <stop offset="0.6" stop-color="#000" stop-opacity="0"/>
      <stop offset="1" stop-color="#000" stop-opacity="0.55"/>
    </radialGradient>
    <filter id="glow" x="-50%" y="-50%" width="200%" height="200%">
      <feGaussianBlur stdDeviation="12"/>
    </filter>
    <filter id="glowSmall" x="-50%" y="-50%" width="200%" height="200%">
      <feGaussianBlur stdDeviation="4"/>
    </filter>
    <filter id="smoke" x="-50%" y="-50%" width="200%" height="200%">
      <feGaussianBlur stdDeviation="18"/>
    </filter>
    <clipPath id="leftPauldron">
      <path d="M380 370 Q380 265 470 255 Q545 252 560 305 L560 390 Q470 410 380 385 Z"/>
    </clipPath>
  </defs>

  <!-- Sky, smoke and the far ruins of the Capital Wasteland -->
  <rect width="1536" height="768" fill="url(#sky)"/>
  <rect width="1536" height="768" fill="url(#sun)"/>
  <g fill="#2b1330" opacity="0.35">
    <ellipse cx="260" cy="170" rx="300" ry="40"/>
    <ellipse cx="1180" cy="120" rx="360" ry="45"/>
    <ellipse cx="900" cy="250" rx="260" ry="28"/>
  </g>
  <g fill="#5a2a36" opacity="0.85">
    <path d="M0 600 L0 540 L40 540 L40 500 L90 500 L90 530 L130 530 L130 470 L150 458 L175 470 L175 520 L230 520 L230 560 L330 560 L330 510 L360 510 L372 488 L390 510 L420 510 L420 575 L1000 575 L1000 560 Q1075 460 1150 560 L1180 560 L1180 520 L1200 505 L1215 520 L1215 575 L1536 575 L1536 600 Z"/>
    <path d="M1466 590 L1478 332 L1486 322 L1491 342 L1498 330 L1508 590 Z"/>
  </g>

  <!-- smoke rising from the hit, behind the blast -->
  <g fill="#24101c" opacity="0.7" filter="url(#smoke)">
    <ellipse cx="1310" cy="360" rx="110" ry="60"/>
    <ellipse cx="1350" cy="270" rx="90" ry="55"/>
    <ellipse cx="1390" cy="190" rx="80" ry="45"/>
  </g>

  <g fill="#1f1018">
    <path d="M0 650 L0 560 L60 560 L60 590 L110 590 L110 545 L150 530 L185 548 L185 600 L260 600 L260 650 Z"/>
    <!-- the ruin being hit -->
    <path d="M1222 640 L1222 468 L1240 452 L1256 474 L1272 446 L1290 462 L1318 440 L1334 466 L1352 450 L1370 478 L1378 640 Z"/>
    <path d="M1390 650 L1390 560 L1450 560 L1450 600 L1536 600 L1536 650 Z"/>
  </g>
  <polyline points="1222,468 1240,452 1256,474 1272,446 1290,462 1318,440 1334,466 1352,450 1370,478" fill="none" stroke="#ff9a4a" stroke-width="3" opacity="0.85"/>
  <g fill="#ff9a4a" opacity="0.55">
    <rect x="1240" y="500" width="12" height="18"/>
    <rect x="1276" y="530" width="12" height="18"/>
    <rect x="1330" y="505" width="12" height="18"/>
  </g>
  <path d="M0 640 Q400 610 768 628 T1536 620 L1536 768 L0 768 Z" fill="url(#ground)"/>
  <ellipse cx="1300" cy="640" rx="260" ry="30" fill="#ff7a35" opacity="0.3" filter="url(#glow)"/>

  <!-- Liberty Prime -->
  <g id="prime">
    <!-- legs -->
    <path d="M515 575 L605 575 L615 700 L620 768 L500 768 L505 700 Z" fill="url(#steel)"/>
    <path d="M665 575 L755 575 L765 700 L775 768 L650 768 L655 700 Z" fill="url(#steel)"/>
    <rect x="512" y="650" width="100" height="40" rx="10" fill="url(#steelDark)"/>
    <rect x="660" y="650" width="100" height="40" rx="10" fill="url(#steelDark)"/>
    <!-- pelvis -->
    <path d="M490 520 L780 520 L760 590 L510 590 Z" fill="url(#steelDark)"/>
    <rect x="495" y="540" width="280" height="10" fill="#2a3034"/>
    <!-- right arm, hanging -->
    <path d="M795 380 L875 380 L868 500 L802 500 Z" fill="url(#steel)"/>
    <path d="M797 510 L875 510 L866 625 L805 625 Z" fill="url(#steel)"/>
    <circle cx="835" cy="505" r="34" fill="url(#steel)" stroke="#2a3034" stroke-width="4"/>
    <circle cx="835" cy="505" r="12" fill="#2a3034"/>
    <rect x="790" y="612" width="92" height="78" rx="22" fill="url(#steel)"/>
    <g stroke="#2a3034" stroke-width="4" stroke-linecap="round">
      <line x1="810" y1="650" x2="810" y2="684"/>
      <line x1="832" y1="650" x2="832" y2="686"/>
      <line x1="854" y1="650" x2="854" y2="684"/>
    </g>
    <!-- torso -->
    <path d="M470 270 Q470 240 500 235 L770 235 Q800 240 800 270 L785 500 Q780 535 745 540 L525 540 Q490 535 485 500 Z" fill="url(#steel)"/>
    <line x1="488" y1="460" x2="782" y2="460" stroke="#2b3236" stroke-width="3"/>
    <rect x="580" y="300" width="110" height="140" rx="12" fill="#252b2f"/>
    <g stroke="#0f1316" stroke-width="7" stroke-linecap="round">
      <line x1="596" y1="320" x2="674" y2="320"/>
      <line x1="596" y1="337" x2="674" y2="337"/>
      <line x1="596" y1="354" x2="674" y2="354"/>
      <line x1="596" y1="371" x2="674" y2="371"/>
      <line x1="596" y1="388" x2="674" y2="388"/>
      <line x1="596" y1="405" x2="674" y2="405"/>
      <line x1="596" y1="422" x2="674" y2="422"/>
    </g>
    <g fill="#b9c3c7" opacity="0.7">
      <circle cx="494" cy="290" r="4"/><circle cx="494" cy="334" r="4"/><circle cx="494" cy="378" r="4"/><circle cx="494" cy="422" r="4"/><circle cx="494" cy="490" r="4"/>
      <circle cx="776" cy="290" r="4"/><circle cx="776" cy="334" r="4"/><circle cx="776" cy="378" r="4"/><circle cx="776" cy="422" r="4"/><circle cx="776" cy="490" r="4"/>
    </g>
    <circle cx="635" cy="495" r="26" fill="#1f3a78" stroke="#d9dde0" stroke-width="3"/>
    <path transform="translate(635 495)" d="M0,-17 L4.11,-5.66 L16.17,-5.25 L6.66,2.16 L9.99,13.75 L0,7 L-9.99,13.75 L-6.66,2.16 L-16.17,-5.25 L-4.11,-5.66 Z" fill="#f2efe6"/>
    <!-- right pauldron -->
    <path d="M710 305 Q725 252 800 255 Q890 265 890 370 L890 385 Q800 410 710 390 Z" fill="url(#steel)"/>
    <!-- raised left arm with a mini nuke -->
    <path d="M450 372 L392 332 L302 432 L352 482 Z" fill="url(#steel)"/>
    <path d="M356 462 L300 448 L232 300 L286 280 Z" fill="url(#steel)"/>
    <circle cx="328" cy="458" r="36" fill="url(#steel)" stroke="#2a3034" stroke-width="4"/>
    <circle cx="328" cy="458" r="13" fill="#2a3034"/>
    <g transform="translate(250 212) rotate(-25)">
      <path d="M-62 -18 L-98 -44 L-86 -8 Z" fill="#5d665d"/>
      <path d="M-62 18 L-98 44 L-86 8 Z" fill="#5d665d"/>
      <path d="M-70 0 Q-70 -32 -20 -34 L35 -30 Q70 -18 72 0 Q70 18 35 30 L-20 34 Q-70 32 -70 0 Z" fill="url(#nukeBody)"/>
      <path d="M35 -30 Q70 -18 72 0 Q70 18 35 30 Z" fill="#d9b640"/>
      <rect x="-8" y="-34" width="12" height="68" fill="#b3261e"/>
    </g>
    <circle cx="258" cy="290" r="44" fill="url(#steel)"/>
    <g stroke="#2a3034" stroke-width="4" stroke-linecap="round">
      <line x1="236" y1="262" x2="228" y2="292"/>
      <line x1="256" y1="256" x2="250" y2="290"/>
      <line x1="276" y1="258" x2="272" y2="290"/>
    </g>
    <!-- left pauldron with the flag -->
    <path d="M380 370 Q380 265 470 255 Q545 252 560 305 L560 390 Q470 410 380 385 Z" fill="url(#steel)"/>
    <g clip-path="url(#leftPauldron)" opacity="0.92">
      <rect x="400" y="300" width="150" height="70" fill="#e8e2d0"/>
      <rect x="400" y="300" width="150" height="10" fill="#b3261e"/>
      <rect x="400" y="320" width="150" height="10" fill="#b3261e"/>
      <rect x="400" y="340" width="150" height="10" fill="#b3261e"/>
      <rect x="400" y="360" width="150" height="10" fill="#b3261e"/>
      <rect x="400" y="300" width="62" height="40" fill="#1f3a78"/>
      <g fill="#f2efe6">
        <circle cx="412" cy="310" r="2.5"/><circle cx="428" cy="310" r="2.5"/><circle cx="444" cy="310" r="2.5"/>
        <circle cx="420" cy="320" r="2.5"/><circle cx="436" cy="320" r="2.5"/><circle cx="452" cy="320" r="2.5"/>
        <circle cx="412" cy="330" r="2.5"/><circle cx="428" cy="330" r="2.5"/><circle cx="444" cy="330" r="2.5"/>
      </g>
    </g>
    <!-- head -->
    <rect x="590" y="232" width="80" height="30" fill="url(#steelDark)"/>
    <path d="M548 240 L548 170 Q548 100 630 95 Q712 100 712 170 L712 240 Z" fill="url(#steel)"/>
    <path d="M552 150 Q630 128 708 150" fill="none" stroke="#2b3236" stroke-width="4"/>
    <rect x="560" y="160" width="140" height="26" rx="13" fill="#1a0d0a"/>
    <rect x="556" y="156" width="148" height="34" rx="17" fill="#ff6a2a" opacity="0.9" filter="url(#glowSmall)"/>
    <rect x="566" y="165" width="128" height="16" rx="8" fill="url(#visor)"/>
    <g stroke="#2b3236" stroke-width="4" stroke-linecap="round">
      <line x1="572" y1="206" x2="572" y2="228"/>
      <line x1="588" y1="206" x2="588" y2="228"/>
      <line x1="672" y1="206" x2="672" y2="228"/>
      <line x1="688" y1="206" x2="688" y2="228"/>
    </g>
  </g>

  <!-- The laser, from the visor to the ruins -->
  <polygon points="706,160 1324,375 1276,485 694,186" fill="#ff6a2a" opacity="0.55" filter="url(#glow)"/>
  <polygon points="702,167 1309,410 1291,450 698,179" fill="#ff8a3d"/>
  <polygon points="701,171 1303,424 1297,436 699,175" fill="#fffbe8"/>
  <circle cx="1300" cy="430" r="160" fill="url(#blast)"/>
  <circle cx="1300" cy="430" r="42" fill="#fff8e0" filter="url(#glowSmall)"/>
  <g stroke="#ffd27a" stroke-width="4" stroke-linecap="round">
    <line x1="1330" y1="410" x2="1430" y2="355"/>
    <line x1="1340" y1="440" x2="1450" y2="455"/>
    <line x1="1320" y1="465" x2="1395" y2="530"/>
    <line x1="1275" y1="462" x2="1240" y2="545"/>
    <line x1="1265" y1="410" x2="1195" y2="345"/>
    <line x1="1305" y1="395" x2="1330" y2="295"/>
    <line x1="1345" y1="425" x2="1470" y2="400"/>
  </g>
  <g fill="#1a0f14">
    <polygon points="1418,338 1432,330 1436,346 1424,350"/>
    <polygon points="1206,330 1218,322 1224,336"/>
    <polygon points="1462,452 1476,446 1478,462 1466,464"/>
    <polygon points="1238,552 1250,548 1246,562"/>
  </g>

  <rect width="1536" height="768" fill="url(#vignette)"/>
</svg>
